<?xml version="1.0" encoding="UTF-8"?>
<svg id="Layer_1" data-name="Layer 1" xmlns="http://www.w3.org/2000/svg" viewBox="0 0 200 200">
  <defs>
    <style>
      .cls-1 {
        fill: #231f20;
      }
    </style>
  </defs>
  <path id="Path_8" data-name="Path 8" class="cls-1" d="m184.88,185.62c-.22-11.19-3.06-22.17-8.3-32.06-12.2-24.58-37.2-40.19-64.64-40.38-7.73-.27-15.39-.16-22.52,0-4.32.06-8.64.43-12.91,1.09-16.88,2.89-32.2,11.63-43.28,24.69-11.25,12.93-17.65,29.38-18.11,46.52-.51,3.72,1.48,7.34,4.89,8.91l.27.12h159.45l.27-.12c3.41-1.5,5.4-5.07,4.88-8.76m-155.48-5.05c.4-4.41,1.38-8.74,2.91-12.89,6.77-20.13,23.73-35.15,44.53-39.44,3.47-.77,7.01-1.18,10.56-1.21,7.27-.16,15.21-.17,25,0,27.64.77,51.2,20.26,57.13,47.26.35,1.73.63,3.45.89,5.31l.17,1.05-141.19-.08Z"/>
  <path id="Path_9" data-name="Path 9" class="cls-1" d="m69.58,98.47c8.82,6.45,19.46,9.92,30.39,9.89,2.81,0,5.62-.22,8.4-.66,28-4.53,47.03-30.89,42.51-58.9-3.05-18.9-16.37-34.53-34.54-40.56-2.72-.82-5.48-1.48-8.28-1.97-1.23-.24-2.51-.49-3.74-.79h-8.46l-1.61.26-2.97.5c-28,4.74-46.85,31.28-42.1,59.28,2.24,13.22,9.56,25.05,20.39,32.95m-7.25-41.67c.11-20.72,16.94-37.45,37.65-37.46h.09c20.78.03,37.61,16.91,37.57,37.7-.03,20.78-16.91,37.61-37.7,37.57h0c-20.81-.05-37.65-16.96-37.6-37.78,0,0,0,0,0,0"/>
</svg>