<svg id="Layer_1" data-name="Layer 1" xmlns="http://www.w3.org/2000/svg" viewBox="0 0 474.27 111.73"><defs><style>.cls-1{fill:#64a844;}.cls-2{fill:#fff;}</style></defs><title>DELTA LOGO-01</title><path id="_Path_" data-name="&lt;Path&gt;" class="cls-1" d="M417.4,111.73a55.87,55.87,0,1,0-55.87-55.87,55.87,55.87,0,0,0,55.87,55.87"/><path id="_Path_2" data-name="&lt;Path&gt;" class="cls-2" d="M441.16,33.35c-8.72.93-17,15.48-19.37,11.42-1.45-4.3,5.36-9.22,9-12.22,4.28-3.46,4.48-6.54,4.48-6.54-.72-4.86-10.14-10-16-11-9.12-1.45-16.93.76-20.06,6.81-2,3.9,5.69,16.37,3.4,19.06-3.42.53-3-6.57-6.85-8.06-7.5-2.92-13.1,7.8-13.92,10.19-4.25,12.32,12.87,7.58,17.12,13.64-9.33-.45-17.22,1.65-23.5,8.2a43.58,43.58,0,0,0,1.22,5c.38-.39.73-.81,1.12-1.19,6.72-6.54,13.44-9,22-9.33-.3,4.71-13,4.5-15.53,11.94-2.1,6.31.78,15,8.34,17.62C399,91.16,403,74.21,406.36,74.67c2.29.31.89,23.84,15.76,21,10-1.88,19.32-11.78,19.83-13.28,2.55-7.41-19.7-12.14-18.41-16.48,1.3-8.08,11.64,5,23.46,3.29,5.28-.73,12.6-6.13,14.44-20.42-3-7.77-9.78-16.58-20.28-15.46"/><path id="_Compound_Path_" data-name="&lt;Compound Path&gt;" class="cls-1" d="M72.54,56c0,19.79-3.68,34.64-26.3,34.64H25.73c-5.65,0-7.07-1.42-7.07-7.07V28.46c0-5.66,1.42-7.07,7.07-7.07H46.24c22.62,0,26.3,14.84,26.3,34.64m19.23,0c0-24-5.38-49.49-39-49.49H14.43C5.94,6.54,0,10.07,0,21.39V90.67C0,102,5.94,105.52,14.43,105.52H55.29c31.1,0,36.48-25.45,36.48-49.49"/><path id="_Compound_Path_2" data-name="&lt;Compound Path&gt;" class="cls-1" d="M156.81,56.45c0,2.13-.43,4.38-3.68,4.38H118.77c0-12.72,5-18.37,19.09-18.37,9.9,0,18.95,4.1,18.95,14m17.11,3c0-24-14.85-29.69-36.06-29.69-25.45,0-36.2,8.48-36.2,38.17,0,24,4.25,37.61,28.28,37.61h41.57V92.79H134.89c-14.14,0-16.12-7.92-16.12-19.23h43.55c8.48,0,11.6-5.66,11.6-14.14"/><rect id="_Path_3" data-name="&lt;Path&gt;" class="cls-1" x="186.29" y="6.54" width="16.54" height="98.97"/><path id="_Path_4" data-name="&lt;Path&gt;" class="cls-1" d="M263.21,105.52V92.79h-4.1c-11.31,0-17.25-3.82-17.25-15.13V43.3h21.35V30.58H241.86v-24H225.32v24H215V43.3h10.33V81.06c0,18.37,10.6,24.46,27.57,24.46Z"/><path id="_Compound_Path_3" data-name="&lt;Compound Path&gt;" class="cls-1" d="M325.7,88.55q0,4.24-4.24,4.24H298.13c-5.65,0-7.91-3.53-7.91-10.6s2.26-10.61,7.91-10.61H325.7Zm16.55,4.24V52.63c0-12.72-6.93-22.05-21.07-22.05H278.62V43.3h36.62c7.07,0,10.46,3.68,10.46,10.75v4.81H291.77c-12.72,0-18.66,9.19-18.66,23.33,0,15.55,5.94,23.32,18.66,23.32h37.75q12.72,0,12.73-12.72"/></svg>