<?xml version="1.0" encoding="UTF-8"?>
<svg id="Layer_1" data-name="Layer 1" xmlns="http://www.w3.org/2000/svg" xmlns:xlink="http://www.w3.org/1999/xlink" viewBox="0 0 200 200">
  <defs>
    <style>
      .cls-1 {
        fill: none;
      }

      .cls-2 {
        clip-path: url(#clippath);
      }
    </style>
    <clipPath id="clippath">
      <rect class="cls-1" x="23.91" y="3.94" width="152.17" height="192.12"/>
    </clipPath>
  </defs>
  <g class="cls-2">
    <g id="Group_93" data-name="Group 93">
      <path id="Path_10" data-name="Path 10" d="m61.7,47.14c-1.42-12.79,3.54-25.46,13.28-33.87,7.28-6.46,16.8-9.81,26.51-9.33,21.44.87,38.11,18.96,37.23,40.39-.04.94-.11,1.87-.22,2.8h2.94c4.72-.14,9.45.02,14.16.47,8.43,1.39,14.77,8.44,15.27,16.97.8,13.31,1.35,26.64,1.99,39.96,1.02,21.44,2.07,42.9,3.01,64.35.36,4.04.28,8.11-.25,12.14-1.68,8.73-9.33,15.04-18.23,15.03-7.27.11-14.54,0-21.8,0H43.77c-9.56.44-17.94-6.32-19.52-15.76-.41-3.78-.44-7.58-.07-11.36.7-15.92,1.49-31.84,2.24-47.77.88-18.91,1.76-37.83,2.79-56.75.78-9.61,8.7-17.07,18.34-17.26,4.59-.09,9.18,0,14.15,0m38.34,136.06h56.25c3.52.42,6.72-2.1,7.14-5.62.07-.59.06-1.19-.04-1.78-.07-2.07-.14-4.13-.24-6.2-1.02-21.72-2.04-43.44-3.07-65.15-.6-12.66-1.16-25.32-1.82-37.97.22-3.58-2.51-6.67-6.09-6.89-.42-.03-.85-.01-1.27.05-10,.04-20,.08-30,.11l-71.82.18c-3.52-.44-6.72,2.06-7.16,5.57-.05.39-.06.79-.04,1.19-.4,5.2-.52,10.41-.76,15.6-1.46,31.05-2.92,62.11-4.39,93.16-.25,5.27,2.2,7.79,7.48,7.8h55.83m25.38-136.19c1.73-10.6-3.13-21.18-12.3-26.77-8.96-5.32-20.26-4.66-28.54,1.67-7.72,5.87-11.5,15.56-9.81,25.1h50.66Z"/>
      <path id="Path_11" data-name="Path 11" d="m100.22,111.95c-17.89-.18-33.37-12.49-37.57-29.88-1.03-2.96.19-6.23,2.91-7.79,2.51-1.47,5.7-1.04,7.73,1.05.94,1.19,1.62,2.56,1.99,4.03,3.26,13.77,17.08,22.29,30.85,19.03,9.06-2.15,16.25-9.05,18.76-18.01.18-.64.31-1.3.48-1.93.83-3.5,4.34-5.67,7.84-4.84.06.01.12.03.19.05,3.41.88,5.46,4.35,4.58,7.76-.02.07-.04.14-.06.2-2.98,14-13.62,25.11-27.48,28.68-3.36.78-6.78,1.35-10.21,1.7"/>
    </g>
  </g>
</svg>